<?xml version="1.0" encoding="UTF-8"?>
<svg id="_Слой_2" data-name="Слой 2" xmlns="http://www.w3.org/2000/svg" viewBox="0 0 449.09 238.62">
  <g id="Vertical">
    <g id="Color">
      <g id="Camera">
        <path d="M166.64,36.18c-.44-.34-.97-.71-1.3-1.23-.14-.3-.22-.57-.04-.97.15-.37.7-.56,1-.55,2.37.13,4.43,1.18,6.53,2.15,1.82.96,3.91,2.16,5.06,4.05.47.88.85,1.84,1.11,2.75,1.23,4.4,1.71,8.86,1.24,13.41-.16,1.41-.49,2.94-1.18,4.24-.37.82-1.1,1.33-1.49,2.18-1.78,4.35-1.98,9.28-2.35,13.98-.18,5.56.27,11.45.27,17.02-.25,15.94-1.4,35.67-1.87,51.69,0,0-.32,8.62-.32,8.62-.09,2.87-.28,5.74-.13,8.62.02.35-.25.65-.6.67-.24.01-.45-.11-.57-.29-2.08-2.88-1.41-6.01-1.51-9,0,0,.03-8.62.03-8.62.16-19.58,1.47-40.74,1.39-60.32-.07-5.73.26-11.65,1.4-17.28.45-2.16.93-4.36,1.98-6.36.32-.64.9-1.25,1.35-1.79,1.41-2.17,1.48-5.3,1.5-7.9-.03-2.81-.34-5.66-1.04-8.35-.48-2.84-2.64-4.55-5.09-5.83-1.7-.9-3.78-1.93-5.64-2.16-.07,0-.03.01,0-.02.13,0,.34-.3.29-.54,0-.03-.02-.08-.03-.08.04.05.07.1.14.17.18.2.46.42.72.63.72.58-.13,1.66-.86,1.12h0Z" style="fill: #997170;"/>
        <path d="M112.43,162.12c-.41-13.07-.81-30.92-1.12-43.99-.28-9.67-.37-19.69-.12-29.33.08-2.66.5-15.95.57-18.33.09-8.82,3.24-17.31,8.12-24.57.29-.49,1.12-.3,1.13.28,0,0,.03.52.03.52.2,2.99-1.51,4.59-2.37,6.8-.98,2.11-1.75,4.32-2.33,6.57-1.32,4.48-1.52,9.4-1.6,14.07,0,0-.47,14.66-.47,14.66-.79,9.92-.34,62.38-.44,73.32,0,.39-.32.71-.71.71-.39,0-.71-.32-.71-.71h0Z" style="fill: #997170;"/>
        <path d="M126.81,37.73c6.83-6.63,16.09-10.96,25.67-11.9,3.65-.4,13.16-.46,16.99-.62,15-.43,30.01-.78,45.02-.71,0,0-2.21,1.21-2.21,1.2,3.73-5.2,7.98-9.99,12.63-14.28,4.66-4.13,8.98-9.27,15.13-11.34.11-.26,43.89.13,44.06,0,1.81-.05,3.83.05,5.57.72,5.26,1.9,9.53,5.69,13.76,9.18,5.67,4.67,10.5,10.43,14.05,16.89l-.47-.28h22.65c6.32,1.7,11.56,6.84,13.46,13.1.09.28-.07.58-.35.67-.3.09-.56-.08-.67-.35-2.57-5.29-7.8-8.99-13.43-9.52,0,0,1,.14,1,.14l-22.65-2.97-.3-.04c-4.11-6.05-9.23-11.2-15.16-15.42-2.93-2.11-5.82-4.27-8.78-5.88-2.4-1.28-4.69-2.29-7.28-2.09-14.61.72-30.49,1.43-45.17,1.56,0,0,1.77-.33,1.77-.33-4.89,1.43-9.12,6.28-13.23,9.81-4.75,4.3-9.29,9.07-12.91,14.46-7.98.13-15.97-.06-23.95-.16-7.5-.05-15.01-.34-22.51-.53-6.25-.03-16.04-.97-22.18.3-7.15,1.31-14.07,4.42-19.77,9.18-.23.19-.56.16-.75-.07-.18-.22-.16-.54.04-.73h0Z" style="fill: #997170;"/>
        <path d="M348.65,90.35c12.47,7.21,12.64,26.56,0,33.68-.49.28-1.05-.36-.7-.81,7.4-10.3,7.48-21.8,0-32.06-.36-.44.22-1.11.7-.81h0Z" style="fill: #997170;"/>
        <path d="M172.28,41.76c-.17,4.7-1.47,9.97-6.18,12.13-3.94,1.95-8.53,2.44-12.78,2.82-8.46.52-16.8.92-25.3.31-9.49-.89-11.22-3.4-7.94-11.45,1.83-2.74,4.46-5.79,6.65-7.76,2.77-3.37,7.23-4.74,11.38-5.21,8.33-.74,16.3-1.55,24.75-.72,5.97.79,10.39,3.07,9.44,9.9h0ZM168.27,41.66c-.13-3.21-3.31-4.08-6.29-4.83-3.69-.76-7.7-1.2-11.69-1.49-7.31-.2-16.84-2.41-22.39,3.49-2.48,2.26-4.73,4.78-6.59,7.58,0,0,.13-.43.13-.43-.26,1.18-.98,2.71-1.25,4.17-1.35,4.82,4.67,4.99,7.94,5.21,8.23.27,16.69-.48,24.9-1.32,4-.54,7.99-1.07,11.53-2.95,3.55-1.91,3.77-5.4,3.71-9.43h0Z" style="fill: #997170;"/>
        <path d="M164.59,44.63c-.91,7.64-13.18,6.86-18.31,4.48-5.66-2.35-5.93-6.71.06-8.79,4.48-1.41,9.48-1.29,13.83.52,1.92.52,4.42,1.24,4.42,3.79h0ZM160.92,44.63c1.29-5.09-8.34-4.65-11.3-3.63-1.88.64-4.22,1.52-5.12,3.27-.05.2,0,.31.03.36.2.24.39.45.74.73,3.42,2.38,8.64,2.37,12.56,1.25,1.22-.45,2.57-.84,3.1-1.98h0Z" style="fill: #997170;"/>
        <path d="M209.42,111.43c-.24-21.34,13.81-41.55,33.61-49.28,34.98-14.28,74.78,11.07,74.77,49.28,0,38.21-39.79,63.56-74.77,49.28-19.8-7.73-33.86-27.94-33.61-49.28h0ZM211.01,111.43c0,28.38,24.52,50.81,52.6,49.15,25.92-1.13,47.87-23.26,47.52-49.15.34-25.88-21.6-48.02-47.52-49.15-28.08-1.66-52.61,20.77-52.6,49.15h0Z" style="fill: #997170;"/>
        <path d="M212.7,163.99c-44.02-48.41-15.24-127.36,51.46-130.45,48.83-1.43,85.17,45.02,74.21,92.17-3.35,14.83-11.43,28.52-22.75,38.28-2.5,2.07-5.76-1.3-3.65-3.72,9.29-10.34,15.65-22.95,18.19-36.3,10.69-55.78-43.49-102.65-96.5-79.02-22.69,10.34-38.6,33.63-40.23,58.5-1.72,21.09,6.8,43.22,22.91,56.82,2.7,2.45-1.07,6.39-3.64,3.73h0Z" style="fill: #997170;"/>
        <path d="M262.99,68.55s.03-.01.05-.01" style="fill: none; stroke: #997170; stroke-linecap: round; stroke-miterlimit: 10; stroke-width: 1.56px;"/>
        <path d="M262.99,149s.03.01.05.01" style="fill: none; stroke: #997170; stroke-linecap: round; stroke-miterlimit: 10; stroke-width: 1.56px;"/>
        <path d="M265.48,149.74c-.73.27-1.86.77-2.74.71-2.01-.02-4.2-.11-6.19-.44-8.24-1.16-16.1-4.71-22.3-10.42-12.89-11.44-17.06-31.36-9.96-47.06,6.6-15.48,23.83-25.94,40.27-24.78,0,0,4.24.25,4.24.25-5.69,1.79-11.56,3.9-16.49,7.24-20.57,12.78-26.57,39.93-10.35,58.72,5.26,6.06,12.3,10.55,19.71,13.63,0,0,1.72.68,1.72.68.76.25,1.56.97,2.1,1.47h0ZM263.91,149.46c-.57-.03-.93.46-1.39.32,0,0-.21-.07-.21-.07l-.43-.14c-18.3-5.66-32.73-20.54-32.62-40.47-.36-20.15,16.09-37.2,35.13-41.32,0,0,.25,1.57.25,1.57-21.01.74-39.98,18.38-39.6,39.87-.12,20.32,15.89,36.96,35.81,39.24,0,0,1.85.21,1.85.21.47.09.66.62,1.2.79h0Z" style="fill: #997170;"/>
        <path d="M262.99,68.55s.03-.01.05-.01" style="fill: none; stroke: #997170; stroke-linecap: round; stroke-miterlimit: 10; stroke-width: 1.56px;"/>
        <path d="M262.99,149s.03.01.05.01" style="fill: none; stroke: #997170; stroke-linecap: round; stroke-miterlimit: 10; stroke-width: 1.56px;"/>
      </g>
      <g id="Text">
        <g>
          <path d="M8.41,219.5c-1.59,0-3.11-.46-4.55-1.37-1.44-.91-2.52-2.28-3.24-4.11-.26-.66-.42-1.36-.5-2.09-.08-.74-.12-1.46-.12-2.17s.13-1.07.39-1.07.39.2.39.61c0,2.39.61,4.19,1.81,5.4,1.21,1.22,2.74,1.83,4.59,1.83s3.54-.51,5.21-1.52c1.67-1.02,3.23-2.31,4.67-3.88,2.42-2.59,4.62-5.54,6.6-8.87,1.98-3.32,3.77-6.76,5.36-10.31.41-.86,1-2.25,1.78-4.15.77-1.9,1.62-3.98,2.55-6.24.93-2.26,1.83-4.3,2.7-6.13.77-1.72,1.43-3.09,1.97-4.11.54-1.01,1.27-1.88,2.2-2.59.93-.71,2.32-1.42,4.17-2.13-.82.05-1.6.11-2.32.19-.72.08-1.29.11-1.7.11-1.96.05-3.91.18-5.87.38-1.96.2-3.7.57-5.25,1.1-1.54.53-2.65,1.28-3.32,2.25-.46.66-.7,1.42-.7,2.28s.23,1.7.7,2.51c.46.81,1.05,1.4,1.78,1.75.1.1.15.18.15.23,0,.1-.12.22-.35.34-.23.13-.48.17-.73.11-.41-.25-.93-.67-1.54-1.26-.62-.58-1.17-1.2-1.66-1.87-.49-.66-.81-1.22-.96-1.67-.21-.61-.31-1.22-.31-1.83,0-1.22.45-2.21,1.35-2.97.9-.76,2.07-1.34,3.51-1.75,1.44-.41,3-.7,4.67-.88,1.67-.18,3.29-.28,4.86-.3,1.57-.02,2.92-.04,4.05-.04h8.33c.1,0,.15.03.15.08,0,.15-.17.37-.5.65-.34.28-.55.42-.66.42-1.44.05-2.71.58-3.82,1.6-1.11,1.02-2.06,2.17-2.86,3.46s-1.45,2.47-1.97,3.54c-.31.61-.79,1.59-1.43,2.93-.64,1.35-1.34,2.87-2.08,4.57-.75,1.7-1.49,3.39-2.24,5.06-.75,1.67-1.4,3.12-1.97,4.34-1.34,3.04-2.59,5.87-3.74,8.49-1.16,2.61-2.43,5.06-3.82,7.35-1.39,2.28-3.11,4.52-5.17,6.7-1.29,1.37-2.92,2.55-4.9,3.54-1.98.99-3.87,1.48-5.67,1.48Z" style="fill: #997170;"/>
          <path d="M45.53,207.02c-.52,0-.95-.1-1.31-.3-.36-.2-.54-.58-.54-1.14,0-.71.19-1.55.58-2.51.39-.96.81-1.93,1.27-2.89.46-.96.85-1.75,1.16-2.36.62-1.17,1.21-2.33,1.78-3.5.57-1.17,1.05-2.16,1.47-2.97.41-.76.62-1.27.62-1.52,0-.41-.3-.41-.89,0-.59.41-1.15.81-1.66,1.22-1.13,1.07-2.32,2.32-3.55,3.77-1.23,1.45-2.19,2.6-2.86,3.46-.15.2-.28.3-.39.3s-.15-.13-.15-.38c0-.41.13-.79.39-1.14.72-1.01,1.57-2.13,2.55-3.35.98-1.22,1.98-2.39,3.01-3.5.98-1.01,1.98-2,3.01-2.97,1.03-.96,2.34-1.45,3.94-1.45,1.08,0,1.62.41,1.62,1.22,0,.71-.31,1.52-.93,2.44-.36.56-.93,1.5-1.7,2.82-.77,1.32-1.56,2.75-2.35,4.3-.8,1.55-1.48,2.98-2.05,4.3-.57,1.32-.85,2.28-.85,2.89,0,.71.36,1.07,1.08,1.07.57,0,1.26-.29,2.08-.88.82-.58,1.67-1.28,2.55-2.09,1.59-1.52,3.05-3.18,4.36-4.99,1.31-1.8,2.44-3.54,3.4-5.21.95-1.67,1.71-3.04,2.28-4.11.1-.2.22-.44.35-.72.13-.28.35-.44.66-.5.31-.05.98-.08,2.01-.08s1.98-.2,2.86-.61h.15c.15,0,.23.08.23.23,0,.41-.33.71-1,.91-.62.2-1.33.81-2.12,1.83-.8,1.02-1.58,2.25-2.35,3.69-.77,1.45-1.47,2.93-2.08,4.45s-1.08,2.92-1.39,4.19c-.31,1.27-.39,2.21-.23,2.82.21.71.57,1.07,1.08,1.07.67,0,1.61-.41,2.82-1.22,1.21-.81,2.46-1.79,3.74-2.93,1.29-1.14,2.34-2.19,3.16-3.16.36-.41.69-.81,1-1.22.31-.41.51-.66.62-.76.05.05.1.14.15.27.05.13.08.24.08.34-.05.36-.18.7-.39,1.03-.21.33-.44.62-.7.88-.98,1.27-2.15,2.6-3.51,4-1.36,1.4-2.83,2.58-4.4,3.54-1.57.96-3.18,1.45-4.82,1.45-.52,0-1.09-.13-1.74-.38-.64-.25-.97-.81-.97-1.67,0-.66.18-1.56.54-2.7.36-1.14.76-2.28,1.2-3.43.44-1.14.81-1.99,1.12-2.55-.67.96-1.48,2.04-2.43,3.24-.95,1.19-1.92,2.25-2.89,3.16-1.29,1.22-2.66,2.25-4.13,3.08-1.47.84-2.97,1.26-4.51,1.26Z" style="fill: #997170;"/>
          <path d="M82.42,206.94c-1.54,0-2.6-.37-3.16-1.1-.57-.74-.85-1.64-.85-2.7,0-1.42.32-2.94.97-4.57.64-1.62,1.17-2.89,1.58-3.81-.67.71-1.31,1.4-1.93,2.06-.62.66-1.06,1.14-1.31,1.45-.15.2-.28.3-.39.3s-.15-.13-.15-.38c0-.41.13-.79.39-1.14.72-.91,1.54-1.88,2.47-2.89.93-1.01,1.83-2.08,2.7-3.2,1.03-1.88,2.17-4.07,3.43-6.58,1.26-2.51,2.57-5.1,3.94-7.76,1.36-2.66,2.7-5.13,4.01-7.38,1.31-2.26,2.48-4.07,3.51-5.44.87-.35,1.71-.81,2.51-1.37.8-.56,1.59-1.08,2.39-1.56.8-.48,1.63-.72,2.51-.72.57,0,.99.15,1.27.46.28.3.48.66.58,1.07.05.15.08.43.08.84,0,1.17-.4,2.59-1.2,4.26-.8,1.67-1.73,3.31-2.78,4.91-1.06,1.6-1.97,2.91-2.74,3.92-2.06,2.84-4.17,5.42-6.33,7.73-2.16,2.31-4.1,4.24-5.83,5.78-1.73,1.55-2.97,2.68-3.74,3.39-.36.66-.79,1.54-1.27,2.63-.49,1.09-.91,2.23-1.27,3.43-.36,1.19-.54,2.3-.54,3.31,0,.86.21,1.59.62,2.17.41.58,1.11.88,2.08.88h.46c.15,0,.33-.03.54-.08.87-.15,1.83-.63,2.86-1.45,1.03-.81,2.06-1.75,3.09-2.82,1.03-1.07,1.95-2.08,2.78-3.05.36-.41.7-.8,1-1.18.31-.38.51-.65.62-.8.36.36.35.8-.04,1.33-.39.53-.71.98-.97,1.33-.36.46-.88,1.08-1.54,1.87-.67.79-1.44,1.64-2.31,2.55-.98.96-2.19,1.93-3.63,2.89-1.44.96-2.91,1.45-4.4,1.45ZM85.66,189.43c1.59-1.32,3.61-3.21,6.06-5.67,2.44-2.46,4.85-5.44,7.22-8.94.26-.41.68-1.09,1.27-2.06.59-.96,1.21-2.07,1.85-3.31.64-1.24,1.2-2.46,1.66-3.65.46-1.19.69-2.22.69-3.08,0-.81-.23-1.22-.69-1.22-.57,0-1.31.48-2.24,1.45-1.08,1.12-2.3,2.75-3.67,4.91-1.36,2.16-2.79,4.56-4.28,7.19-1.49,2.64-2.92,5.23-4.28,7.76-1.36,2.54-2.56,4.75-3.59,6.62Z" style="fill: #997170;"/>
          <path d="M102.26,207.02c-.52,0-.94-.1-1.27-.3-.33-.2-.5-.58-.5-1.14,0-.71.19-1.55.58-2.51.39-.96.82-1.93,1.31-2.89.49-.96.86-1.75,1.12-2.36.36-.71.81-1.64,1.35-2.78s1.05-2.23,1.54-3.27c.49-1.04.84-1.76,1.04-2.17-.72.76-1.58,1.71-2.59,2.85-1,1.14-1.94,2.25-2.82,3.31-.88,1.07-1.54,1.9-2.01,2.51-.15.2-.28.3-.39.3s-.15-.13-.15-.38c0-.41.13-.79.39-1.14.98-1.22,2.07-2.59,3.28-4.11s2.3-2.93,3.28-4.22c.98-1.29,1.59-2.14,1.85-2.55.57-.1,1.4-.25,2.51-.46,1.11-.2,1.86-.48,2.28-.84.15-.15.31-.23.46-.23.1,0,.17.09.19.27.03.18-.04.37-.19.57-.31.36-.85,1.22-1.62,2.59-.77,1.37-1.58,2.88-2.43,4.53-.85,1.65-1.63,3.13-2.35,4.45-.72,1.37-1.34,2.69-1.85,3.96-.52,1.27-.77,2.18-.77,2.74,0,.71.36,1.07,1.08,1.07.67,0,1.53-.41,2.59-1.22,1.05-.81,2.12-1.79,3.2-2.93,1.08-1.14,2.03-2.19,2.86-3.16.26-.3.58-.67.97-1.1.39-.43.63-.7.73-.8.1.1.15.28.15.53-.05.36-.18.7-.39,1.03-.21.33-.41.62-.62.88-1.08,1.32-2.26,2.68-3.55,4.07-1.29,1.4-2.7,2.56-4.24,3.5-1.54.94-3.22,1.41-5.02,1.41ZM115.69,177.71c-.72,0-1.23-.23-1.54-.69-.21-.25-.31-.58-.31-.99,0-.81.39-1.47,1.16-1.98.57-.3,1.08-.46,1.54-.46.77,0,1.31.23,1.62.69.21.25.31.58.31.99,0,.81-.41,1.47-1.23,1.98-.46.3-.98.46-1.54.46Z" style="fill: #997170;"/>
          <path d="M130.73,207.02c-.52,0-.95-.1-1.31-.3-.36-.2-.54-.58-.54-1.14,0-.71.18-1.52.54-2.44.36-.91.77-1.81,1.24-2.7.46-.89.87-1.61,1.24-2.17-1.8,1.88-3.68,3.65-5.63,5.33-.98.81-2.06,1.57-3.24,2.28-1.18.71-2.44,1.07-3.78,1.07-.52,0-.88-.16-1.08-.5-.21-.33-.31-.72-.31-1.18,0-.25.03-.43.08-.53.26-1.98.9-4.03,1.93-6.17,1.03-2.13,2.29-4.14,3.78-6.01,1.49-1.88,3.01-3.4,4.55-4.57,1.75-1.32,3.68-1.98,5.79-1.98h8.88c.26,0,.39.1.39.3,0,.41-.23.61-.7.61-.52,0-1.03.32-1.54.95-.52.64-.9,1.15-1.16,1.56-.36.56-.93,1.5-1.7,2.82-.77,1.32-1.56,2.75-2.35,4.3-.8,1.55-1.48,2.98-2.05,4.3-.57,1.32-.85,2.28-.85,2.89,0,.71.36,1.07,1.08,1.07.77,0,1.65-.35,2.62-1.07.98-.71,1.97-1.59,2.97-2.63,1-1.04,1.93-2.08,2.78-3.12.85-1.04,1.53-1.87,2.05-2.47.31.3.3.72-.04,1.26-.34.53-.63.95-.89,1.26-1.03,1.32-2.21,2.68-3.55,4.07-1.34,1.4-2.79,2.56-4.36,3.5-1.57.94-3.18,1.41-4.82,1.41ZM122.4,204.35c.62,0,1.48-.44,2.59-1.33,1.11-.89,2.3-2,3.59-3.35,1.29-1.34,2.5-2.77,3.63-4.26,1.13-1.5,2.07-2.87,2.82-4.11.75-1.24,1.12-2.19,1.12-2.85,0-.56-.17-.94-.5-1.14-.33-.2-.76-.3-1.27-.3-.82,0-1.71.29-2.66.88-.95.58-1.71,1.15-2.28,1.71-.62.56-1.35,1.43-2.2,2.63-.85,1.19-1.69,2.5-2.51,3.92-.82,1.42-1.52,2.79-2.08,4.11-.57,1.32-.85,2.39-.85,3.2,0,.61.21.91.62.91Z" style="fill: #997170;"/>
          <path d="M165.54,207.32c-.05.05-.1.08-.15.08-.15,0-.23-.23-.23-.69,0-.3.09-.62.27-.95.18-.33.53-.52,1.04-.57,1.44-.1,2.8-.58,4.09-1.45,1.29-.86,2.42-1.89,3.4-3.08.98-1.19,1.67-2.32,2.08-3.39l7.1-17.51c.98-2.38,2.1-4.69,3.36-6.93,1.26-2.23,2.88-4.06,4.86-5.48,1.98-1.42,4.49-2.13,7.52-2.13,1.18,0,2.38.14,3.59.42,1.21.28,2.22.72,3.05,1.33.82.61,1.24,1.47,1.24,2.59v.46c0,.15-.03.3-.08.46-.15.81-.61,1.63-1.35,2.44-.75.81-1.33,1.83-1.74,3.04-.05.36-.28.53-.7.53-.36,0-.44-.23-.23-.69.41-.61.73-1.33.97-2.17.23-.84.35-1.69.35-2.55,0-1.32-.31-2.49-.93-3.5-.62-1.01-1.67-1.52-3.16-1.52-1.34,0-2.7.38-4.09,1.14-1.39.76-2.6,2.08-3.63,3.96l-14.28,25.96c-1.34,2.44-2.56,4.17-3.67,5.21-1.11,1.04-2.02,1.69-2.74,1.94h18.6c2.47,0,4.76-.08,6.87-.23,2.11-.15,3.4-.53,3.86-1.14.51-.71.77-1.47.77-2.28,0-1.27-.7-2.21-2.08-2.82-.15-.1-.23-.2-.23-.3s.06-.2.19-.3c.13-.1.3-.1.5,0,.46.2,1.01.65,1.66,1.33.64.69,1.25,1.42,1.81,2.21.57.79.93,1.41,1.08,1.87.15.46.23.91.23,1.37,0,2.08-1.83,3.12-5.48,3.12-2.88,0-5.97-.1-9.26-.3-3.29-.2-6.55-.43-9.76-.69-3.22-.25-6.24-.43-9.07-.53-1.08-.1-2.15.04-3.2.42-1.06.38-1.87.82-2.43,1.33Z" style="fill: #997170;"/>
          <path d="M219.95,207.4c-2.11,0-3.58-.41-4.4-1.22-.82-.81-1.24-1.8-1.24-2.97,0-1.47.4-3.05,1.2-4.72.8-1.67,1.56-3.09,2.28-4.26.82-1.22,1.93-2.49,3.32-3.81,1.39-1.32,2.91-2.44,4.55-3.35,1.65-.91,3.24-1.37,4.78-1.37,1.34,0,2.26.32,2.78.95.51.63.77,1.38.77,2.25,0,1.57-.48,2.87-1.43,3.88-.95,1.02-2.12,1.84-3.51,2.47-1.39.64-2.73,1.16-4.01,1.56-.77.2-1.67.41-2.7.61-1.03.2-2.01.3-2.93.3-.36.91-.64,1.8-.85,2.66-.21.86-.31,1.65-.31,2.36,0,.86.22,1.57.66,2.13.44.56,1.17.84,2.2.84.41,0,.9-.05,1.47-.15.57-.1,1.18-.25,1.85-.46,1.54-.51,3.06-1.32,4.55-2.44,1.49-1.12,2.87-2.32,4.13-3.62,1.26-1.29,2.22-2.37,2.89-3.24.15.15.23.33.23.53,0,.25-.18.66-.54,1.22-1.03,1.42-2.37,2.89-4.01,4.41-1.65,1.52-3.47,2.8-5.48,3.84-2.01,1.04-4.09,1.56-6.25,1.56ZM220.03,196.21c.67.05,1.43.04,2.28-.04.85-.08,1.68-.24,2.51-.5,2.11-.61,3.64-1.59,4.59-2.93.95-1.34,1.43-2.55,1.43-3.62,0-.61-.13-1.12-.39-1.52-.26-.41-.67-.61-1.23-.61-1.49,0-2.83.55-4.01,1.64-1.18,1.09-2.21,2.35-3.09,3.77-.88,1.42-1.57,2.69-2.08,3.81Z" style="fill: #997170;"/>
          <path d="M246.88,207.24c-.72,0-1.34-.25-1.85-.76-.52-.51-.77-1.39-.77-2.66,0-1.12.09-2.44.27-3.96.18-1.52.45-3.08.81-4.68.36-1.6.77-3.01,1.24-4.22-.88,1.27-1.85,2.58-2.93,3.92-1.08,1.35-1.98,2.47-2.7,3.39-.15.2-.28.3-.39.3s-.15-.13-.15-.38c0-.41.13-.79.39-1.14,1.08-1.47,2.3-3.15,3.67-5.02,1.36-1.88,2.53-3.58,3.51-5.1.57-.1,1.25-.25,2.04-.46.8-.2,1.38-.48,1.74-.84.26-.15.41-.23.46-.23.15,0,.23.09.23.27s-.08.37-.23.57c-.46.66-.97,1.67-1.51,3.04s-1.08,2.89-1.62,4.57c-.54,1.68-.98,3.31-1.31,4.91-.33,1.6-.5,2.96-.5,4.07,0,.81.13,1.38.39,1.71.26.33.59.5,1,.5.57,0,1.25-.28,2.05-.84.8-.56,1.48-1.14,2.05-1.75.72-.76,1.53-1.78,2.43-3.04.9-1.27,1.75-2.61,2.55-4.03.8-1.42,1.4-2.71,1.81-3.88.31-.81.51-1.51.62-2.09.1-.58.15-1.05.15-1.41,0-.61-.08-1.04-.23-1.29-.15-.25-.28-.41-.39-.46-.31-.1-.46-.23-.46-.38,0-.1.1-.19.31-.27.21-.08.41-.06.62.04.67.2,1.34.5,2.01.88.67.38,1,1.1,1,2.17,0,.26-.03.55-.08.88-.05.33-.15.7-.31,1.1-.31.81-.94,1.95-1.89,3.43-.95,1.47-2.05,3.02-3.28,4.64-1.24,1.62-2.47,3.1-3.7,4.41-1.24,1.32-2.32,2.26-3.24,2.82-.62.36-1.26.66-1.93.91-.67.25-1.29.38-1.85.38Z" style="fill: #997170;"/>
          <path d="M282.85,207.17c-1.29,0-2.26-.43-2.93-1.29-.41-.61-.82-1.52-1.23-2.74-.41-1.22-.77-2.49-1.08-3.81-.31-1.32-.57-2.38-.77-3.2-1.44,1.83-2.71,3.65-3.82,5.48-1.11,1.83-1.84,3.25-2.2,4.26-.1.3-.45.56-1.04.76s-1.17.3-1.74.3c-.82,0-1.13-.25-.93-.76,1.59-3.5,3.11-6.88,4.55-10.12,1.44-3.25,2.97-6.52,4.59-9.82,1.62-3.3,3.46-6.72,5.52-10.28,1.44-2.59,3.18-5.09,5.21-7.5,2.03-2.41,4.21-4.39,6.52-5.94,2.31-1.55,4.66-2.32,7.02-2.32.77,0,1.49.2,2.16.61.67.41,1,1.04,1,1.9v2.21c0,.2-.15.3-.46.3-.15,0-.23-.05-.23-.15,0-.81-.36-1.36-1.08-1.64-.72-.28-1.42-.42-2.08-.42-1.8,0-3.63.36-5.48,1.07-2.06.81-3.78,2.03-5.17,3.65-1.39,1.62-2.68,3.35-3.86,5.18-1.54,2.33-3.06,5.06-4.55,8.18-1.49,3.12-2.87,6.25-4.13,9.4-1.26,3.15-2.38,5.99-3.36,8.53.57-.71,1.13-1.42,1.7-2.13.57-.71,1.11-1.37,1.62-1.98,0-.1-.01-.2-.04-.3-.03-.1-.04-.2-.04-.3,0-.35.08-.66.23-.91.15-.25.36-.56.62-.91.36-.51.7-.9,1-1.18.31-.28.64-.65,1-1.1l.23,1.29c2.26-2.28,4.25-3.93,5.94-4.95,1.18-.71,2.34-1.07,3.47-1.07s1.7.43,1.7,1.29c0,.71-.36,1.6-1.08,2.66-.26.36-.41.61-.46.76-.05.15-.15.3-.31.46-.05.05-.15.05-.31,0-.15-.05-.23-.13-.23-.23,0-.61-.21-1-.62-1.18-.41-.18-.88-.27-1.39-.27-.98,0-2.02.34-3.13,1.03-1.11.69-2.23,1.61-3.36,2.78.26,1.27.55,2.65.89,4.15.33,1.5.71,2.88,1.12,4.15.41,1.27.8,2.21,1.16,2.82.26.41.62.67,1.08.8.46.13.85.19,1.16.19.72,0,1.56-.37,2.51-1.1.95-.73,1.93-1.62,2.93-2.66,1-1.04,1.93-2.07,2.78-3.08.85-1.01,1.5-1.83,1.97-2.44.21.25.26.51.15.76-.05.3-.19.62-.42.95-.23.33-.45.62-.66.88-1.03,1.27-2.14,2.55-3.32,3.84-1.18,1.29-2.44,2.45-3.78,3.46-.57.46-1.26.85-2.08,1.18s-1.65.49-2.47.49Z" style="fill: #997170;"/>
          <path d="M301.06,206.94c-.82,0-1.56-.16-2.2-.5-.64-.33-.96-1.05-.96-2.17,0-1.78.46-3.56,1.39-5.37.93-1.8,1.88-3.39,2.86-4.76.87-1.17,1.86-2.27,2.97-3.31,1.11-1.04,2.3-1.94,3.59-2.7.82-.51,1.94-1.05,3.36-1.64,1.41-.58,2.61-.88,3.59-.88.82,0,1.54.22,2.16.65.62.43.93,1.21.93,2.32,0,1.73-.45,3.49-1.35,5.29-.9,1.8-1.84,3.39-2.82,4.76-.46.61-.93,1.18-1.39,1.71-.46.53-.98,1.08-1.54,1.64,1.9,0,3.65-.54,5.25-1.64,1.59-1.09,2.98-2.42,4.17-4l.15-.15c.15,0,.23.15.23.46,0,.36-.1.69-.31.99-1.03,1.42-2.32,2.68-3.86,3.77-1.54,1.09-3.29,1.64-5.25,1.64h-.62c-.21,0-.41-.03-.62-.08-2.88,2.64-6.12,3.96-9.72,3.96ZM303.07,205.65c.72,0,1.51-.25,2.35-.76.85-.51,1.51-.99,1.97-1.45.87-.86,1.67-1.79,2.39-2.78.72-.99,1.39-1.99,2.01-3.01.72-1.22,1.44-2.66,2.16-4.34.72-1.67,1.08-3.25,1.08-4.72,0-1.17-.41-1.75-1.23-1.75-.67,0-1.48.28-2.43.84-.95.56-1.66,1.07-2.12,1.52-1.75,1.78-3.22,3.71-4.4,5.78-.67,1.17-1.39,2.54-2.16,4.11-.77,1.57-1.16,3.02-1.16,4.34,0,.2.01.39.04.57.03.18.06.37.12.57.21.71.67,1.07,1.39,1.07Z" style="fill: #997170;"/>
          <path d="M332.39,207.24c-.72,0-1.34-.25-1.85-.76-.52-.51-.77-1.39-.77-2.66,0-1.12.09-2.44.27-3.96.18-1.52.45-3.08.81-4.68.36-1.6.77-3.01,1.24-4.22-.88,1.27-1.85,2.58-2.93,3.92-1.08,1.35-1.98,2.47-2.7,3.39-.15.2-.28.3-.39.3s-.15-.13-.15-.38c0-.41.13-.79.39-1.14,1.08-1.47,2.3-3.15,3.67-5.02,1.36-1.88,2.53-3.58,3.51-5.1.57-.1,1.25-.25,2.04-.46.8-.2,1.38-.48,1.74-.84.26-.15.41-.23.46-.23.15,0,.23.09.23.27s-.08.37-.23.57c-.46.66-.97,1.67-1.51,3.04s-1.08,2.89-1.62,4.57c-.54,1.68-.98,3.31-1.31,4.91-.33,1.6-.5,2.96-.5,4.07,0,.81.13,1.38.39,1.71.26.33.59.5,1,.5.57,0,1.25-.28,2.05-.84.8-.56,1.48-1.14,2.05-1.75.72-.76,1.53-1.78,2.43-3.04.9-1.27,1.75-2.61,2.55-4.03.8-1.42,1.4-2.71,1.81-3.88.31-.81.51-1.51.62-2.09.1-.58.15-1.05.15-1.41,0-.61-.08-1.04-.23-1.29-.15-.25-.28-.41-.39-.46-.31-.1-.46-.23-.46-.38,0-.1.1-.19.31-.27.21-.08.41-.06.62.04.67.2,1.34.5,2.01.88.67.38,1,1.1,1,2.17,0,.26-.03.55-.08.88-.05.33-.15.7-.31,1.1-.31.81-.94,1.95-1.89,3.43-.95,1.47-2.05,3.02-3.28,4.64-1.24,1.62-2.47,3.1-3.7,4.41-1.24,1.32-2.32,2.26-3.24,2.82-.62.36-1.26.66-1.93.91-.67.25-1.29.38-1.85.38Z" style="fill: #997170;"/>
          <path d="M346.6,233.43c-1.96,0-3.85-.44-5.67-1.33-1.83-.89-3.18-2.25-4.05-4.07-.31-.66-.51-1.36-.62-2.09-.1-.74-.15-1.46-.15-2.17v-.84c0-.41.05-.77.15-1.1.1-.33.36-.5.77-.5.1,0,.15.05.15.15,0,.3-.03.61-.08.91-.05.3-.08.63-.08.99,0,2.33.76,4.11,2.28,5.33,1.52,1.22,3.41,1.83,5.67,1.83.93,0,1.88-.1,2.86-.3.98-.2,1.9-.48,2.78-.84,3.24-1.37,6.06-3.31,8.45-5.82,2.39-2.51,4.49-5.34,6.29-8.49,1.8-3.15,3.42-6.34,4.86-9.59.82-1.93,1.56-3.81,2.2-5.63.64-1.83,1.22-3.48,1.74-4.95-.52.71-1.18,1.57-2.01,2.59-.82,1.02-1.65,1.99-2.47,2.93-.82.94-1.54,1.69-2.16,2.25-1.29,1.22-2.66,2.25-4.13,3.08-1.47.84-2.97,1.26-4.51,1.26-.52,0-.95-.1-1.31-.3-.36-.2-.54-.58-.54-1.14,0-.71.19-1.55.58-2.51.39-.96.81-1.93,1.27-2.89.46-.96.85-1.75,1.16-2.36.62-1.17,1.21-2.33,1.78-3.5.57-1.17,1.05-2.16,1.47-2.97.41-.76.62-1.27.62-1.52,0-.41-.3-.41-.89,0-.59.41-1.15.81-1.66,1.22-1.13,1.07-2.32,2.32-3.55,3.77-1.23,1.45-2.19,2.6-2.86,3.46-.15.2-.28.3-.39.3s-.15-.13-.15-.38c0-.41.13-.79.39-1.14.72-1.01,1.57-2.13,2.55-3.35.98-1.22,1.98-2.39,3.01-3.5.98-1.01,1.98-2,3.01-2.97,1.03-.96,2.34-1.45,3.94-1.45,1.08,0,1.62.41,1.62,1.22,0,.71-.31,1.52-.93,2.44-.36.56-.93,1.5-1.7,2.82-.77,1.32-1.56,2.75-2.35,4.3-.8,1.55-1.48,2.98-2.05,4.3-.57,1.32-.85,2.28-.85,2.89,0,.71.36,1.07,1.08,1.07.57,0,1.26-.29,2.08-.88.82-.58,1.67-1.28,2.55-2.09,1.49-1.42,2.87-2.99,4.13-4.72,1.26-1.72,2.35-3.37,3.28-4.95.15-.25.42-.71.81-1.37.39-.66.8-1.29,1.23-1.9.44-.61.78-.96,1.04-1.07.26-.1.77-.38,1.54-.84.77-.46,1.54-.76,2.32-.91.72-.15,1.26-.23,1.62-.23.57,0,.85.15.85.46,0,.41-.23.61-.69.61-.57,0-1.08.14-1.54.42-.46.28-.82.62-1.08,1.03-.46.66-1.12,1.85-1.97,3.58-.85,1.73-1.78,3.72-2.78,5.98-1,2.26-2,4.54-2.97,6.85-.98,2.31-1.88,4.43-2.7,6.36-1.24,2.89-2.65,5.72-4.24,8.49-1.6,2.77-3.46,5.25-5.6,7.46-2.14,2.21-4.67,3.95-7.6,5.21-1.75.76-3.68,1.14-5.79,1.14Z" style="fill: #997170;"/>
          <path d="M390.12,207.4c-1.9,0-3.24-.36-4.01-1.07-.77-.71-1.16-1.62-1.16-2.74,0-1.47.49-3.11,1.47-4.91.98-1.8,1.9-3.31,2.78-4.53.87-1.17,1.86-2.27,2.97-3.31,1.11-1.04,2.3-1.94,3.59-2.7.82-.51,1.94-1.05,3.36-1.64,1.41-.58,2.61-.88,3.59-.88,1.18,0,2.01.27,2.47.8.46.53.7,1.18.7,1.94,0,.61-.1,1.23-.31,1.86-.21.64-.44,1.23-.7,1.79-.15.3-.39.52-.69.65-.31.13-.46.09-.46-.11,0-.25.03-.48.08-.69.05-.2.08-.43.08-.69,0-.96-.22-1.92-.66-2.85-.44-.94-1.09-1.41-1.97-1.41-.93,0-1.93.32-3.01.95-1.08.64-1.83,1.18-2.24,1.64-1.34,1.37-2.64,3.07-3.9,5.1-1.26,2.03-2.17,3.96-2.74,5.79-.36,1.07-.54,1.98-.54,2.74,0,.86.23,1.47.7,1.83.46.36,1.03.53,1.7.53.51,0,1.07-.08,1.66-.23.59-.15,1.22-.33,1.89-.53,1.54-.51,3.1-1.31,4.67-2.4,1.57-1.09,3-2.26,4.28-3.5,1.29-1.24,2.26-2.32,2.93-3.24.1.1.15.25.15.46,0,.25-.1.55-.31.88-.21.33-.36.6-.46.8-1.08,1.42-2.5,2.88-4.24,4.38-1.75,1.5-3.64,2.75-5.67,3.77-2.03,1.01-4.03,1.52-5.98,1.52Z" style="fill: #997170;"/>
          <path d="M422.46,207.24c-.77,0-1.45-.15-2.04-.46-.59-.3-.89-.86-.89-1.67,0-.46.1-.96.31-1.52.46-1.17,1.09-2.59,1.89-4.26.8-1.67,1.61-3.31,2.43-4.91.82-1.6,1.47-2.9,1.93-3.92.31-.61.46-1.04.46-1.29,0-.46-.26-.56-.77-.3-.52.25-1.08.61-1.7,1.07s-1.08.81-1.39,1.07c-1.34,1.22-2.74,2.65-4.21,4.3-1.47,1.65-2.81,3.38-4.01,5.18-1.21,1.8-2.15,3.59-2.82,5.37-.05.3-.39.56-1,.76s-1.18.3-1.7.3c-.82,0-1.13-.25-.93-.76,1.18-2.64,2.4-5.56,3.67-8.75,1.26-3.2,2.69-6.47,4.28-9.82,1.18-2.54,2.51-5.15,3.97-7.84,1.47-2.69,3.1-5.26,4.9-7.73,1.8-2.46,3.78-4.63,5.94-6.51,1.9-1.62,4-2.96,6.29-4,2.29-1.04,4.77-1.56,7.45-1.56,1.18,0,2.21.24,3.09.72.87.48,1.36,1.33,1.47,2.55v.69c0,.71-.08,1.42-.23,2.13-.05.2-.26.3-.62.3-.15,0-.21-.03-.15-.08.21-1.32-.14-2.26-1.04-2.82-.9-.56-2.05-.84-3.43-.84-2.52,0-4.84.46-6.95,1.37-2.11.91-4.06,2.13-5.87,3.65-2.78,2.39-5.2,5.43-7.25,9.13-2.06,3.71-3.83,7.49-5.33,11.34-.72,1.88-1.43,3.76-2.12,5.63-.7,1.88-1.35,3.63-1.97,5.25,2.32-3.04,4.54-5.66,6.68-7.84,2.13-2.18,4-3.73,5.6-4.64,1.29-.71,2.44-1.07,3.47-1.07s1.47.41,1.47,1.22c0,.71-.36,1.62-1.08,2.74-.36.56-.91,1.5-1.66,2.82-.75,1.32-1.52,2.75-2.32,4.3-.8,1.55-1.48,2.98-2.05,4.3-.57,1.32-.85,2.28-.85,2.89,0,.81.36,1.22,1.08,1.22.41,0,.89-.13,1.43-.38.54-.25.94-.48,1.2-.69,1.39-1.01,2.75-2.26,4.09-3.73,1.34-1.47,2.47-2.76,3.4-3.88.05-.05.08.03.08.23s-.04.5-.12.88-.24.7-.5.95c-.57.76-1.15,1.48-1.74,2.17-.59.69-1.17,1.36-1.74,2.02-.98,1.12-2.15,2.18-3.51,3.2-1.36,1.02-2.89,1.52-4.59,1.52Z" style="fill: #997170;"/>
        </g>
        <g>
          <path d="M130.76,231.92c0,.7-.33,1.26-.99,1.68-.66.43-1.53.64-2.6.64-.16,0-.46-.02-.88-.06h-.13v3.45c0,.34.1.53.29.56.2.03.48.05.84.05.16,0,.24.05.24.13,0,.06-.09.1-.26.11s-.76.02-1.76.02c-1.26,0-1.99,0-2.19-.02-.21-.01-.31-.05-.31-.12,0-.1.06-.14.18-.12h.33c.34-.02.54-.04.6-.05.06,0,.1-.03.13-.07.03-.04.05-.25.05-.65v-6.38c0-.51,0-.78-.02-.82-.05-.11-.28-.17-.72-.17h-.29c-.17,0-.25-.05-.25-.15,0-.06.08-.1.24-.11.16-.01.72-.02,1.67-.02,1.89,0,3.06.03,3.49.1,1.57.23,2.35.89,2.35,2ZM128.83,231.93c0-1.21-.62-1.82-1.87-1.82-.37,0-.59.03-.68.08-.09.05-.13.2-.13.44v3.29c1.79,0,2.68-.66,2.68-1.99Z" style="fill: #b57d6b;"/>
          <path d="M148.62,238.35c0,.09-.22.13-.66.13h-3.08c-.32.01-.49-.03-.49-.12,0-.07.12-.11.37-.12.48-.01.73-.07.76-.17.03-.06.04-.27.04-.63v-3.48h-4.19v3.92c.03.14.09.23.19.27s.34.06.75.08c.16,0,.24.04.24.13s-.15.13-.44.13h-3.43c-.22,0-.33-.04-.33-.13s.21-.14.64-.15c.32-.01.5-.09.53-.23v-7.12c0-.36,0-.55-.02-.57-.02-.1-.15-.15-.4-.15-.5-.01-.75-.08-.75-.19,0-.08.1-.11.31-.11h3.5c.25,0,.38.05.38.15,0,.11-.2.17-.59.15-.25,0-.4.02-.47.07-.07.04-.1.17-.1.39v3.01h4.19v-2.58c0-.4-.01-.62-.04-.67-.03-.15-.17-.21-.43-.19h-.41c-.19-.03-.28-.08-.28-.16,0-.11.15-.16.46-.16h3.21c.35,0,.53.05.53.13,0,.1-.1.15-.3.15s-.37,0-.5.02c-.19,0-.3.03-.33.1-.03.06-.05.27-.05.61v6.59c0,.43.04.67.11.71s.33.07.77.07c.21,0,.31.05.31.15Z" style="fill: #b57d6b;"/>
          <path d="M166.31,234.21c0,1.23-.47,2.27-1.4,3.12-.93.85-2.07,1.28-3.41,1.28-1.43,0-2.64-.43-3.62-1.3-.98-.87-1.47-1.93-1.47-3.18s.47-2.37,1.41-3.2c.94-.83,2.14-1.24,3.6-1.24s2.55.43,3.49,1.3c.94.87,1.41,1.94,1.41,3.22ZM164.23,234.27c0-1.47-.35-2.63-1.04-3.47-.44-.54-1.06-.82-1.84-.82-1.08,0-1.86.51-2.35,1.52-.34.71-.51,1.61-.51,2.7,0,1.3.27,2.32.8,3.06.53.73,1.27,1.1,2.21,1.1,1.82,0,2.72-1.36,2.72-4.08Z" style="fill: #b57d6b;"/>
          <path d="M182.72,232.13c0,.17-.09.26-.27.26-.19,0-.3-.12-.31-.35-.04-.5-.17-.91-.38-1.23-.28-.44-.92-.66-1.93-.66-.15,0-.38,0-.69.02v7.65c0,.24.21.37.64.38.43.01.64.06.64.15s-.13.13-.38.13h-3.61c-.3,0-.44-.04-.44-.13s.24-.14.73-.15c.18,0,.3-.01.35-.04.12-.03.18-.09.2-.2s.02-.43.02-.96v-6.85c-1.15-.01-1.9.09-2.25.3-.35.21-.58.72-.7,1.51-.04.29-.14.43-.29.43-.13,0-.2-.14-.2-.43,0-.36.07-1.07.2-2.14h5.16c.46,0,1.39-.01,2.79-.03.12,0,.27-.02.46-.06l.02.39.07.67.07.78.05.34c.01.11.02.19.02.22Z" style="fill: #b57d6b;"/>
          <path d="M200.16,234.21c0,1.23-.47,2.27-1.4,3.12-.93.85-2.07,1.28-3.41,1.28-1.43,0-2.64-.43-3.62-1.3-.98-.87-1.47-1.93-1.47-3.18s.47-2.37,1.41-3.2c.94-.83,2.14-1.24,3.6-1.24s2.55.43,3.49,1.3c.94.87,1.41,1.94,1.41,3.22ZM198.08,234.27c0-1.47-.35-2.63-1.04-3.47-.44-.54-1.06-.82-1.84-.82-1.08,0-1.86.51-2.35,1.52-.34.71-.51,1.61-.51,2.7,0,1.3.27,2.32.8,3.06.53.73,1.27,1.1,2.21,1.1,1.82,0,2.72-1.36,2.72-4.08Z" style="fill: #b57d6b;"/>
          <path d="M218.1,235.86c0,.06-.13.1-.4.11h-.71c-.07.01-.13.07-.17.17s-.06.33-.06.68v.76c-.97.68-2.1,1.03-3.37,1.03-1.62,0-2.91-.4-3.87-1.19-.96-.79-1.44-1.85-1.44-3.16s.47-2.47,1.41-3.31c.94-.84,2.17-1.26,3.71-1.26.8,0,1.65.22,2.57.65.07.04.14.06.2.06.12,0,.2-.08.24-.25.09-.23.19-.34.31-.34s.18.05.18.15c0-.02-.01.08-.04.32-.05.37-.07,1.1-.07,2.19,0,.29-.09.44-.27.44-.13,0-.2-.08-.2-.23-.03-.82-.3-1.48-.81-1.97-.51-.49-1.17-.73-1.98-.73-.99,0-1.76.38-2.32,1.14-.56.76-.84,1.8-.84,3.11s.28,2.27.85,3c.57.73,1.34,1.1,2.31,1.1.89,0,1.43-.24,1.64-.72.07-.16.11-.43.11-.79,0-.45-.03-.71-.1-.77-.07-.06-.34-.08-.83-.08h-.35c-.12,0-.18-.04-.18-.12,0-.11.18-.16.53-.16h3.56c.25,0,.38.06.38.17Z" style="fill: #b57d6b;"/>
          <path d="M234.21,238.01c0,.41-.41.61-1.24.61s-1.44-.26-1.94-.78c-.22-.23-.37-.45-.44-.68-.07-.23-.16-.77-.26-1.61-.07-.54-.28-.92-.61-1.14-.33-.21-.9-.33-1.71-.36v3.92c-.04.18.33.27,1.11.27.16,0,.24.05.24.13s-.1.13-.31.13h-3.56c-.41,0-.62-.04-.62-.12,0-.09.07-.14.22-.14h.31c.5,0,.75-.09.75-.27v-7.52c0-.14-.04-.23-.12-.28-.08-.04-.3-.07-.64-.07s-.52-.05-.52-.15c0-.09.1-.13.31-.13h4.19c.99,0,1.78.17,2.38.52s.9.81.9,1.37c0,.62-.32,1.12-.95,1.51-.63.39-1.53.61-2.68.67,1.24.11,2.09.39,2.56.83s.76,1.24.9,2.39c.09.78.36,1.17.82,1.17.07,0,.11-.02.11-.06,0-.01-.02-.05-.06-.12-.04-.07-.06-.12-.06-.16,0-.23.15-.35.44-.35.32,0,.49.13.49.4ZM230.72,231.85c0-1.14-.65-1.7-1.95-1.7-.34,0-.55.03-.63.08-.08.06-.12.19-.12.41v3.1c1.8,0,2.7-.63,2.7-1.89Z" style="fill: #b57d6b;"/>
          <path d="M251.11,238.39c0,.08-.15.11-.44.11h-4.36c-.27,0-.4-.05-.4-.15s.27-.16.8-.17c.64-.01.95-.08.95-.19,0-.02-.04-.14-.13-.36-.03-.1-.2-.52-.51-1.27l-.27-.64h-3.17c-.61,1.31-.91,2.06-.91,2.27,0,.11.09.18.27.19l.29.02h.33l.2.06c.18,0,.27.04.27.12,0,.09-.15.13-.46.13-.04,0-.31,0-.79-.03-.48-.02-.9-.03-1.27-.03h-.2l-.2.03-.24.03h-.05c-.24,0-.35-.04-.35-.11,0-.09.1-.14.29-.15.27-.01.44-.03.53-.04.25-.04.41-.1.49-.17.09-.04.45-.76,1.08-2.17.25-.57.5-1.11.73-1.6.09-.18.15-.31.18-.4.03-.09.09-.22.18-.4.25-.52.61-1.31,1.06-2.37l.33-.8.15-.34c.09-.19.18-.28.27-.28.04,0,.14.18.29.53.44.93,1.59,3.37,3.43,7.35.18.39.35.6.51.63.05.01.28.03.71.06.28.01.42.07.42.17ZM246.61,235.4l-1.42-3.25c-.36.76-.85,1.85-1.48,3.25h2.9Z" style="fill: #b57d6b;"/>
          <path d="M265.28,231.92c0,.7-.33,1.26-.99,1.68-.66.43-1.53.64-2.6.64-.16,0-.46-.02-.88-.06h-.13v3.45c0,.34.1.53.29.56.2.03.48.05.84.05.16,0,.24.05.24.13,0,.06-.09.1-.26.11s-.76.02-1.76.02c-1.26,0-1.99,0-2.19-.02-.21-.01-.31-.05-.31-.12,0-.1.06-.14.18-.12h.33c.34-.02.54-.04.6-.05.06,0,.1-.03.13-.07.03-.04.05-.25.05-.65v-6.38c0-.51,0-.78-.02-.82-.05-.11-.28-.17-.72-.17h-.29c-.17,0-.25-.05-.25-.15,0-.06.08-.1.24-.11.16-.01.72-.02,1.67-.02,1.89,0,3.06.03,3.49.1,1.57.23,2.35.89,2.35,2ZM263.35,231.93c0-1.21-.62-1.82-1.87-1.82-.37,0-.59.03-.68.08-.09.05-.13.2-.13.44v3.29c1.79,0,2.68-.66,2.68-1.99Z" style="fill: #b57d6b;"/>
          <path d="M283.14,238.35c0,.09-.22.13-.66.13h-3.08c-.32.01-.49-.03-.49-.12,0-.07.12-.11.37-.12.48-.01.73-.07.76-.17.03-.06.04-.27.04-.63v-3.48h-4.19v3.92c.03.14.09.23.19.27s.34.06.75.08c.16,0,.24.04.24.13s-.15.13-.44.13h-3.43c-.22,0-.33-.04-.33-.13s.21-.14.64-.15c.32-.01.5-.09.53-.23v-7.12c0-.36,0-.55-.02-.57-.02-.1-.15-.15-.4-.15-.5-.01-.75-.08-.75-.19,0-.08.1-.11.31-.11h3.5c.25,0,.38.05.38.15,0,.11-.2.17-.59.15-.25,0-.4.02-.47.07-.07.04-.1.17-.1.39v3.01h4.19v-2.58c0-.4-.01-.62-.04-.67-.03-.15-.17-.21-.43-.19h-.41c-.19-.03-.28-.08-.28-.16,0-.11.15-.16.46-.16h3.21c.35,0,.53.05.53.13,0,.1-.1.15-.3.15s-.37,0-.5.02c-.19,0-.3.03-.33.1-.03.06-.05.27-.05.61v6.59c0,.43.04.67.11.71s.33.07.77.07c.21,0,.31.05.31.15Z" style="fill: #b57d6b;"/>
          <path d="M299.19,236.44s-.01.09-.03.24c-.02.15-.03.28-.03.4v1.1c0,.12.02.24.07.38l-3.69-.06-4.23.06c-.31,0-.47-.05-.47-.15,0-.11.09-.17.27-.17.47,0,.75-.03.83-.09.08-.06.12-.26.12-.62v-6.55c0-.52-.05-.8-.15-.83-.1-.03-.36-.05-.78-.05-.18,0-.26-.04-.26-.13,0-.1.1-.15.29-.15h7.57v.13l.02.28c.03.19.09.75.18,1.69.01.06.02.14.02.23,0,.16-.05.24-.15.24-.13,0-.23-.13-.29-.38-.21-.96-.59-1.53-1.17-1.69-.32-.09-1.09-.13-2.29-.13h-1.12v3.56h.53c.94,0,1.51-.07,1.73-.2s.37-.5.44-1.09c.04-.36.13-.53.26-.53.15,0,.22.13.22.38,0,.15-.01.39-.03.7s-.03.56-.03.72c0,.82.02,1.39.05,1.69.01.1.02.18.02.25,0,.2-.07.3-.22.3-.13,0-.22-.16-.26-.48-.09-.68-.23-1.09-.44-1.23s-.78-.2-1.73-.2h-.55v4.11c2.16-.01,3.43-.06,3.81-.15.59-.14.93-.75,1.04-1.83.01-.19.1-.28.24-.28s.22.17.22.52Z" style="fill: #b57d6b;"/>
          <path d="M315.95,238.01c0,.41-.41.61-1.24.61s-1.44-.26-1.94-.78c-.22-.23-.37-.45-.44-.68-.07-.23-.16-.77-.26-1.61-.07-.54-.28-.92-.61-1.14-.33-.21-.9-.33-1.71-.36v3.92c-.04.18.33.27,1.11.27.16,0,.24.05.24.13s-.1.13-.31.13h-3.56c-.41,0-.62-.04-.62-.12,0-.09.07-.14.22-.14h.31c.5,0,.75-.09.75-.27v-7.52c0-.14-.04-.23-.12-.28-.08-.04-.3-.07-.64-.07s-.52-.05-.52-.15c0-.09.1-.13.31-.13h4.19c.99,0,1.78.17,2.38.52s.9.81.9,1.37c0,.62-.32,1.12-.95,1.51-.63.39-1.53.61-2.68.67,1.24.11,2.09.39,2.56.83s.76,1.24.9,2.39c.09.78.36,1.17.82,1.17.07,0,.11-.02.11-.06,0-.01-.02-.05-.06-.12-.04-.07-.06-.12-.06-.16,0-.23.15-.35.44-.35.32,0,.49.13.49.4ZM312.46,231.85c0-1.14-.65-1.7-1.95-1.7-.34,0-.55.03-.63.08-.08.06-.12.19-.12.41v3.1c1.8,0,2.7-.63,2.7-1.89Z" style="fill: #b57d6b;"/>
        </g>
      </g>
    </g>
  </g>
</svg>